#tb 0: 1/5
0,          0,          0,        1,    18432, 0xdd8a4db8
0,          1,          1,        1,    18432, 0xc0144dbe
0,          2,          2,        1,    18432, 0x1d264db6
0,          3,          3,        1,    18432, 0x49e44dcb
0,          4,          4,        1,    18432, 0x81404dc1
0,          5,          5,        1,    18432, 0xd163688e
0,          6,          6,        1,    18432, 0x63f869bb
0,          7,          7,        1,    18432, 0xee606528
0,          8,          8,        1,    18432, 0x44445e77
0,          9,          9,        1,    18432, 0x830a57b4
